<?xml version="1.0" encoding="UTF-8"?>
<svg xmlns="http://www.w3.org/2000/svg" xmlns:xlink="http://www.w3.org/1999/xlink" width="160pt" height="220pt" viewBox="0 0 160 220" version="1.1">
<g id="surface1">
<path style="fill:none;stroke-width:1;stroke-linecap:butt;stroke-linejoin:miter;stroke:rgb(80%,80%,80%);stroke-opacity:1;stroke-miterlimit:10;" d="M 12 160 L 28 160 C 29.105469 160 30 160.894531 30 162 L 30 178 C 30 179.105469 29.105469 180 28 180 L 12 180 C 10.894531 180 10 179.105469 10 178 L 10 162 C 10 160.894531 10.894531 160 12 160 Z M 12 160 "/>
<path style=" stroke:none;fill-rule:nonzero;fill:rgb(100%,100%,100%);fill-opacity:1;" d="M 12 160 L 28 160 C 29.105469 160 30 160.894531 30 162 L 30 178 C 30 179.105469 29.105469 180 28 180 L 12 180 C 10.894531 180 10 179.105469 10 178 L 10 162 C 10 160.894531 10.894531 160 12 160 Z M 12 160 "/>
<path style="fill:none;stroke-width:1;stroke-linecap:butt;stroke-linejoin:miter;stroke:rgb(80%,80%,80%);stroke-opacity:1;stroke-miterlimit:10;" d="M 12 190 L 28 190 C 29.105469 190 30 190.894531 30 192 L 30 208 C 30 209.105469 29.105469 210 28 210 L 12 210 C 10.894531 210 10 209.105469 10 208 L 10 192 C 10 190.894531 10.894531 190 12 190 Z M 12 190 "/>
<path style=" stroke:none;fill-rule:nonzero;fill:rgb(0%,50.196078%,0%);fill-opacity:1;" d="M 12 190 L 28 190 C 29.105469 190 30 190.894531 30 192 L 30 208 C 30 209.105469 29.105469 210 28 210 L 12 210 C 10.894531 210 10 209.105469 10 208 L 10 192 C 10 190.894531 10.894531 190 12 190 Z M 12 190 "/>
<path style="fill:none;stroke-width:1;stroke-linecap:butt;stroke-linejoin:miter;stroke:rgb(80%,80%,80%);stroke-opacity:1;stroke-miterlimit:10;" d="M 42 10 L 58 10 C 59.105469 10 60 10.894531 60 12 L 60 28 C 60 29.105469 59.105469 30 58 30 L 42 30 C 40.894531 30 40 29.105469 40 28 L 40 12 C 40 10.894531 40.894531 10 42 10 Z M 42 10 "/>
<path style=" stroke:none;fill-rule:nonzero;fill:rgb(0%,50.196078%,0%);fill-opacity:1;" d="M 42 10 L 58 10 C 59.105469 10 60 10.894531 60 12 L 60 28 C 60 29.105469 59.105469 30 58 30 L 42 30 C 40.894531 30 40 29.105469 40 28 L 40 12 C 40 10.894531 40.894531 10 42 10 Z M 42 10 "/>
<path style="fill:none;stroke-width:1;stroke-linecap:butt;stroke-linejoin:miter;stroke:rgb(80%,80%,80%);stroke-opacity:1;stroke-miterlimit:10;" d="M 42 40 L 58 40 C 59.105469 40 60 40.894531 60 42 L 60 58 C 60 59.105469 59.105469 60 58 60 L 42 60 C 40.894531 60 40 59.105469 40 58 L 40 42 C 40 40.894531 40.894531 40 42 40 Z M 42 40 "/>
<path style=" stroke:none;fill-rule:nonzero;fill:rgb(100%,100%,100%);fill-opacity:1;" d="M 42 40 L 58 40 C 59.105469 40 60 40.894531 60 42 L 60 58 C 60 59.105469 59.105469 60 58 60 L 42 60 C 40.894531 60 40 59.105469 40 58 L 40 42 C 40 40.894531 40.894531 40 42 40 Z M 42 40 "/>
<path style="fill:none;stroke-width:1;stroke-linecap:butt;stroke-linejoin:miter;stroke:rgb(80%,80%,80%);stroke-opacity:1;stroke-miterlimit:10;" d="M 42 70 L 58 70 C 59.105469 70 60 70.894531 60 72 L 60 88 C 60 89.105469 59.105469 90 58 90 L 42 90 C 40.894531 90 40 89.105469 40 88 L 40 72 C 40 70.894531 40.894531 70 42 70 Z M 42 70 "/>
<path style=" stroke:none;fill-rule:nonzero;fill:rgb(100%,100%,100%);fill-opacity:1;" d="M 42 70 L 58 70 C 59.105469 70 60 70.894531 60 72 L 60 88 C 60 89.105469 59.105469 90 58 90 L 42 90 C 40.894531 90 40 89.105469 40 88 L 40 72 C 40 70.894531 40.894531 70 42 70 Z M 42 70 "/>
<path style="fill:none;stroke-width:1;stroke-linecap:butt;stroke-linejoin:miter;stroke:rgb(80%,80%,80%);stroke-opacity:1;stroke-miterlimit:10;" d="M 42 100 L 58 100 C 59.105469 100 60 100.894531 60 102 L 60 118 C 60 119.105469 59.105469 120 58 120 L 42 120 C 40.894531 120 40 119.105469 40 118 L 40 102 C 40 100.894531 40.894531 100 42 100 Z M 42 100 "/>
<path style=" stroke:none;fill-rule:nonzero;fill:rgb(0%,50.196078%,0%);fill-opacity:1;" d="M 42 100 L 58 100 C 59.105469 100 60 100.894531 60 102 L 60 118 C 60 119.105469 59.105469 120 58 120 L 42 120 C 40.894531 120 40 119.105469 40 118 L 40 102 C 40 100.894531 40.894531 100 42 100 Z M 42 100 "/>
<path style="fill:none;stroke-width:1;stroke-linecap:butt;stroke-linejoin:miter;stroke:rgb(80%,80%,80%);stroke-opacity:1;stroke-miterlimit:10;" d="M 42 130 L 58 130 C 59.105469 130 60 130.894531 60 132 L 60 148 C 60 149.105469 59.105469 150 58 150 L 42 150 C 40.894531 150 40 149.105469 40 148 L 40 132 C 40 130.894531 40.894531 130 42 130 Z M 42 130 "/>
<path style=" stroke:none;fill-rule:nonzero;fill:rgb(100%,100%,100%);fill-opacity:1;" d="M 42 130 L 58 130 C 59.105469 130 60 130.894531 60 132 L 60 148 C 60 149.105469 59.105469 150 58 150 L 42 150 C 40.894531 150 40 149.105469 40 148 L 40 132 C 40 130.894531 40.894531 130 42 130 Z M 42 130 "/>
<path style="fill:none;stroke-width:1;stroke-linecap:butt;stroke-linejoin:miter;stroke:rgb(80%,80%,80%);stroke-opacity:1;stroke-miterlimit:10;" d="M 42 160 L 58 160 C 59.105469 160 60 160.894531 60 162 L 60 178 C 60 179.105469 59.105469 180 58 180 L 42 180 C 40.894531 180 40 179.105469 40 178 L 40 162 C 40 160.894531 40.894531 160 42 160 Z M 42 160 "/>
<path style=" stroke:none;fill-rule:nonzero;fill:rgb(0%,50.196078%,0%);fill-opacity:1;" d="M 42 160 L 58 160 C 59.105469 160 60 160.894531 60 162 L 60 178 C 60 179.105469 59.105469 180 58 180 L 42 180 C 40.894531 180 40 179.105469 40 178 L 40 162 C 40 160.894531 40.894531 160 42 160 Z M 42 160 "/>
<path style="fill:none;stroke-width:1;stroke-linecap:butt;stroke-linejoin:miter;stroke:rgb(80%,80%,80%);stroke-opacity:1;stroke-miterlimit:10;" d="M 42 190 L 58 190 C 59.105469 190 60 190.894531 60 192 L 60 208 C 60 209.105469 59.105469 210 58 210 L 42 210 C 40.894531 210 40 209.105469 40 208 L 40 192 C 40 190.894531 40.894531 190 42 190 Z M 42 190 "/>
<path style=" stroke:none;fill-rule:nonzero;fill:rgb(100%,100%,100%);fill-opacity:1;" d="M 42 190 L 58 190 C 59.105469 190 60 190.894531 60 192 L 60 208 C 60 209.105469 59.105469 210 58 210 L 42 210 C 40.894531 210 40 209.105469 40 208 L 40 192 C 40 190.894531 40.894531 190 42 190 Z M 42 190 "/>
<path style="fill:none;stroke-width:1;stroke-linecap:butt;stroke-linejoin:miter;stroke:rgb(80%,80%,80%);stroke-opacity:1;stroke-miterlimit:10;" d="M 72 10 L 88 10 C 89.105469 10 90 10.894531 90 12 L 90 28 C 90 29.105469 89.105469 30 88 30 L 72 30 C 70.894531 30 70 29.105469 70 28 L 70 12 C 70 10.894531 70.894531 10 72 10 Z M 72 10 "/>
<path style=" stroke:none;fill-rule:nonzero;fill:rgb(100%,100%,100%);fill-opacity:1;" d="M 72 10 L 88 10 C 89.105469 10 90 10.894531 90 12 L 90 28 C 90 29.105469 89.105469 30 88 30 L 72 30 C 70.894531 30 70 29.105469 70 28 L 70 12 C 70 10.894531 70.894531 10 72 10 Z M 72 10 "/>
<path style="fill:none;stroke-width:1;stroke-linecap:butt;stroke-linejoin:miter;stroke:rgb(80%,80%,80%);stroke-opacity:1;stroke-miterlimit:10;" d="M 72 40 L 88 40 C 89.105469 40 90 40.894531 90 42 L 90 58 C 90 59.105469 89.105469 60 88 60 L 72 60 C 70.894531 60 70 59.105469 70 58 L 70 42 C 70 40.894531 70.894531 40 72 40 Z M 72 40 "/>
<path style=" stroke:none;fill-rule:nonzero;fill:rgb(100%,100%,100%);fill-opacity:1;" d="M 72 40 L 88 40 C 89.105469 40 90 40.894531 90 42 L 90 58 C 90 59.105469 89.105469 60 88 60 L 72 60 C 70.894531 60 70 59.105469 70 58 L 70 42 C 70 40.894531 70.894531 40 72 40 Z M 72 40 "/>
<path style="fill:none;stroke-width:1;stroke-linecap:butt;stroke-linejoin:miter;stroke:rgb(80%,80%,80%);stroke-opacity:1;stroke-miterlimit:10;" d="M 72 70 L 88 70 C 89.105469 70 90 70.894531 90 72 L 90 88 C 90 89.105469 89.105469 90 88 90 L 72 90 C 70.894531 90 70 89.105469 70 88 L 70 72 C 70 70.894531 70.894531 70 72 70 Z M 72 70 "/>
<path style=" stroke:none;fill-rule:nonzero;fill:rgb(100%,100%,100%);fill-opacity:1;" d="M 72 70 L 88 70 C 89.105469 70 90 70.894531 90 72 L 90 88 C 90 89.105469 89.105469 90 88 90 L 72 90 C 70.894531 90 70 89.105469 70 88 L 70 72 C 70 70.894531 70.894531 70 72 70 Z M 72 70 "/>
<path style="fill:none;stroke-width:1;stroke-linecap:butt;stroke-linejoin:miter;stroke:rgb(80%,80%,80%);stroke-opacity:1;stroke-miterlimit:10;" d="M 72 100 L 88 100 C 89.105469 100 90 100.894531 90 102 L 90 118 C 90 119.105469 89.105469 120 88 120 L 72 120 C 70.894531 120 70 119.105469 70 118 L 70 102 C 70 100.894531 70.894531 100 72 100 Z M 72 100 "/>
<path style=" stroke:none;fill-rule:nonzero;fill:rgb(100%,100%,100%);fill-opacity:1;" d="M 72 100 L 88 100 C 89.105469 100 90 100.894531 90 102 L 90 118 C 90 119.105469 89.105469 120 88 120 L 72 120 C 70.894531 120 70 119.105469 70 118 L 70 102 C 70 100.894531 70.894531 100 72 100 Z M 72 100 "/>
<path style="fill:none;stroke-width:1;stroke-linecap:butt;stroke-linejoin:miter;stroke:rgb(80%,80%,80%);stroke-opacity:1;stroke-miterlimit:10;" d="M 72 130 L 88 130 C 89.105469 130 90 130.894531 90 132 L 90 148 C 90 149.105469 89.105469 150 88 150 L 72 150 C 70.894531 150 70 149.105469 70 148 L 70 132 C 70 130.894531 70.894531 130 72 130 Z M 72 130 "/>
<path style=" stroke:none;fill-rule:nonzero;fill:rgb(0%,50.196078%,0%);fill-opacity:1;" d="M 72 130 L 88 130 C 89.105469 130 90 130.894531 90 132 L 90 148 C 90 149.105469 89.105469 150 88 150 L 72 150 C 70.894531 150 70 149.105469 70 148 L 70 132 C 70 130.894531 70.894531 130 72 130 Z M 72 130 "/>
<path style="fill:none;stroke-width:1;stroke-linecap:butt;stroke-linejoin:miter;stroke:rgb(80%,80%,80%);stroke-opacity:1;stroke-miterlimit:10;" d="M 72 160 L 88 160 C 89.105469 160 90 160.894531 90 162 L 90 178 C 90 179.105469 89.105469 180 88 180 L 72 180 C 70.894531 180 70 179.105469 70 178 L 70 162 C 70 160.894531 70.894531 160 72 160 Z M 72 160 "/>
<path style=" stroke:none;fill-rule:nonzero;fill:rgb(0%,50.196078%,0%);fill-opacity:1;" d="M 72 160 L 88 160 C 89.105469 160 90 160.894531 90 162 L 90 178 C 90 179.105469 89.105469 180 88 180 L 72 180 C 70.894531 180 70 179.105469 70 178 L 70 162 C 70 160.894531 70.894531 160 72 160 Z M 72 160 "/>
<path style="fill:none;stroke-width:1;stroke-linecap:butt;stroke-linejoin:miter;stroke:rgb(80%,80%,80%);stroke-opacity:1;stroke-miterlimit:10;" d="M 72 190 L 88 190 C 89.105469 190 90 190.894531 90 192 L 90 208 C 90 209.105469 89.105469 210 88 210 L 72 210 C 70.894531 210 70 209.105469 70 208 L 70 192 C 70 190.894531 70.894531 190 72 190 Z M 72 190 "/>
<path style=" stroke:none;fill-rule:nonzero;fill:rgb(0%,50.196078%,0%);fill-opacity:1;" d="M 72 190 L 88 190 C 89.105469 190 90 190.894531 90 192 L 90 208 C 90 209.105469 89.105469 210 88 210 L 72 210 C 70.894531 210 70 209.105469 70 208 L 70 192 C 70 190.894531 70.894531 190 72 190 Z M 72 190 "/>
<path style="fill:none;stroke-width:1;stroke-linecap:butt;stroke-linejoin:miter;stroke:rgb(80%,80%,80%);stroke-opacity:1;stroke-miterlimit:10;" d="M 102 10 L 118 10 C 119.105469 10 120 10.894531 120 12 L 120 28 C 120 29.105469 119.105469 30 118 30 L 102 30 C 100.894531 30 100 29.105469 100 28 L 100 12 C 100 10.894531 100.894531 10 102 10 Z M 102 10 "/>
<path style=" stroke:none;fill-rule:nonzero;fill:rgb(0%,50.196078%,0%);fill-opacity:1;" d="M 102 10 L 118 10 C 119.105469 10 120 10.894531 120 12 L 120 28 C 120 29.105469 119.105469 30 118 30 L 102 30 C 100.894531 30 100 29.105469 100 28 L 100 12 C 100 10.894531 100.894531 10 102 10 Z M 102 10 "/>
<path style="fill:none;stroke-width:1;stroke-linecap:butt;stroke-linejoin:miter;stroke:rgb(80%,80%,80%);stroke-opacity:1;stroke-miterlimit:10;" d="M 102 40 L 118 40 C 119.105469 40 120 40.894531 120 42 L 120 58 C 120 59.105469 119.105469 60 118 60 L 102 60 C 100.894531 60 100 59.105469 100 58 L 100 42 C 100 40.894531 100.894531 40 102 40 Z M 102 40 "/>
<path style=" stroke:none;fill-rule:nonzero;fill:rgb(0%,50.196078%,0%);fill-opacity:1;" d="M 102 40 L 118 40 C 119.105469 40 120 40.894531 120 42 L 120 58 C 120 59.105469 119.105469 60 118 60 L 102 60 C 100.894531 60 100 59.105469 100 58 L 100 42 C 100 40.894531 100.894531 40 102 40 Z M 102 40 "/>
<path style="fill:none;stroke-width:1;stroke-linecap:butt;stroke-linejoin:miter;stroke:rgb(80%,80%,80%);stroke-opacity:1;stroke-miterlimit:10;" d="M 102 70 L 118 70 C 119.105469 70 120 70.894531 120 72 L 120 88 C 120 89.105469 119.105469 90 118 90 L 102 90 C 100.894531 90 100 89.105469 100 88 L 100 72 C 100 70.894531 100.894531 70 102 70 Z M 102 70 "/>
<path style=" stroke:none;fill-rule:nonzero;fill:rgb(100%,100%,100%);fill-opacity:1;" d="M 102 70 L 118 70 C 119.105469 70 120 70.894531 120 72 L 120 88 C 120 89.105469 119.105469 90 118 90 L 102 90 C 100.894531 90 100 89.105469 100 88 L 100 72 C 100 70.894531 100.894531 70 102 70 Z M 102 70 "/>
<path style="fill:none;stroke-width:1;stroke-linecap:butt;stroke-linejoin:miter;stroke:rgb(80%,80%,80%);stroke-opacity:1;stroke-miterlimit:10;" d="M 102 100 L 118 100 C 119.105469 100 120 100.894531 120 102 L 120 118 C 120 119.105469 119.105469 120 118 120 L 102 120 C 100.894531 120 100 119.105469 100 118 L 100 102 C 100 100.894531 100.894531 100 102 100 Z M 102 100 "/>
<path style=" stroke:none;fill-rule:nonzero;fill:rgb(0%,50.196078%,0%);fill-opacity:1;" d="M 102 100 L 118 100 C 119.105469 100 120 100.894531 120 102 L 120 118 C 120 119.105469 119.105469 120 118 120 L 102 120 C 100.894531 120 100 119.105469 100 118 L 100 102 C 100 100.894531 100.894531 100 102 100 Z M 102 100 "/>
<path style="fill:none;stroke-width:1;stroke-linecap:butt;stroke-linejoin:miter;stroke:rgb(80%,80%,80%);stroke-opacity:1;stroke-miterlimit:10;" d="M 102 130 L 118 130 C 119.105469 130 120 130.894531 120 132 L 120 148 C 120 149.105469 119.105469 150 118 150 L 102 150 C 100.894531 150 100 149.105469 100 148 L 100 132 C 100 130.894531 100.894531 130 102 130 Z M 102 130 "/>
<path style=" stroke:none;fill-rule:nonzero;fill:rgb(0%,50.196078%,0%);fill-opacity:1;" d="M 102 130 L 118 130 C 119.105469 130 120 130.894531 120 132 L 120 148 C 120 149.105469 119.105469 150 118 150 L 102 150 C 100.894531 150 100 149.105469 100 148 L 100 132 C 100 130.894531 100.894531 130 102 130 Z M 102 130 "/>
<path style="fill:none;stroke-width:1;stroke-linecap:butt;stroke-linejoin:miter;stroke:rgb(80%,80%,80%);stroke-opacity:1;stroke-miterlimit:10;" d="M 102 160 L 118 160 C 119.105469 160 120 160.894531 120 162 L 120 178 C 120 179.105469 119.105469 180 118 180 L 102 180 C 100.894531 180 100 179.105469 100 178 L 100 162 C 100 160.894531 100.894531 160 102 160 Z M 102 160 "/>
<path style=" stroke:none;fill-rule:nonzero;fill:rgb(100%,100%,100%);fill-opacity:1;" d="M 102 160 L 118 160 C 119.105469 160 120 160.894531 120 162 L 120 178 C 120 179.105469 119.105469 180 118 180 L 102 180 C 100.894531 180 100 179.105469 100 178 L 100 162 C 100 160.894531 100.894531 160 102 160 Z M 102 160 "/>
<path style="fill:none;stroke-width:1;stroke-linecap:butt;stroke-linejoin:miter;stroke:rgb(80%,80%,80%);stroke-opacity:1;stroke-miterlimit:10;" d="M 102 190 L 118 190 C 119.105469 190 120 190.894531 120 192 L 120 208 C 120 209.105469 119.105469 210 118 210 L 102 210 C 100.894531 210 100 209.105469 100 208 L 100 192 C 100 190.894531 100.894531 190 102 190 Z M 102 190 "/>
<path style=" stroke:none;fill-rule:nonzero;fill:rgb(0%,50.196078%,0%);fill-opacity:1;" d="M 102 190 L 118 190 C 119.105469 190 120 190.894531 120 192 L 120 208 C 120 209.105469 119.105469 210 118 210 L 102 210 C 100.894531 210 100 209.105469 100 208 L 100 192 C 100 190.894531 100.894531 190 102 190 Z M 102 190 "/>
<path style="fill:none;stroke-width:1;stroke-linecap:butt;stroke-linejoin:miter;stroke:rgb(80%,80%,80%);stroke-opacity:1;stroke-miterlimit:10;" d="M 132 10 L 148 10 C 149.105469 10 150 10.894531 150 12 L 150 28 C 150 29.105469 149.105469 30 148 30 L 132 30 C 130.894531 30 130 29.105469 130 28 L 130 12 C 130 10.894531 130.894531 10 132 10 Z M 132 10 "/>
<path style=" stroke:none;fill-rule:nonzero;fill:rgb(0%,50.196078%,0%);fill-opacity:1;" d="M 132 10 L 148 10 C 149.105469 10 150 10.894531 150 12 L 150 28 C 150 29.105469 149.105469 30 148 30 L 132 30 C 130.894531 30 130 29.105469 130 28 L 130 12 C 130 10.894531 130.894531 10 132 10 Z M 132 10 "/>
<path style="fill:none;stroke-width:1;stroke-linecap:butt;stroke-linejoin:miter;stroke:rgb(80%,80%,80%);stroke-opacity:1;stroke-miterlimit:10;" d="M 132 40 L 148 40 C 149.105469 40 150 40.894531 150 42 L 150 58 C 150 59.105469 149.105469 60 148 60 L 132 60 C 130.894531 60 130 59.105469 130 58 L 130 42 C 130 40.894531 130.894531 40 132 40 Z M 132 40 "/>
<path style=" stroke:none;fill-rule:nonzero;fill:rgb(100%,100%,100%);fill-opacity:1;" d="M 132 40 L 148 40 C 149.105469 40 150 40.894531 150 42 L 150 58 C 150 59.105469 149.105469 60 148 60 L 132 60 C 130.894531 60 130 59.105469 130 58 L 130 42 C 130 40.894531 130.894531 40 132 40 Z M 132 40 "/>
<path style="fill:none;stroke-width:1;stroke-linecap:butt;stroke-linejoin:miter;stroke:rgb(80%,80%,80%);stroke-opacity:1;stroke-miterlimit:10;" d="M 132 70 L 148 70 C 149.105469 70 150 70.894531 150 72 L 150 88 C 150 89.105469 149.105469 90 148 90 L 132 90 C 130.894531 90 130 89.105469 130 88 L 130 72 C 130 70.894531 130.894531 70 132 70 Z M 132 70 "/>
<path style=" stroke:none;fill-rule:nonzero;fill:rgb(0%,50.196078%,0%);fill-opacity:1;" d="M 132 70 L 148 70 C 149.105469 70 150 70.894531 150 72 L 150 88 C 150 89.105469 149.105469 90 148 90 L 132 90 C 130.894531 90 130 89.105469 130 88 L 130 72 C 130 70.894531 130.894531 70 132 70 Z M 132 70 "/>
<path style="fill:none;stroke-width:1;stroke-linecap:butt;stroke-linejoin:miter;stroke:rgb(80%,80%,80%);stroke-opacity:1;stroke-miterlimit:10;" d="M 132 100 L 148 100 C 149.105469 100 150 100.894531 150 102 L 150 118 C 150 119.105469 149.105469 120 148 120 L 132 120 C 130.894531 120 130 119.105469 130 118 L 130 102 C 130 100.894531 130.894531 100 132 100 Z M 132 100 "/>
<path style=" stroke:none;fill-rule:nonzero;fill:rgb(100%,100%,100%);fill-opacity:1;" d="M 132 100 L 148 100 C 149.105469 100 150 100.894531 150 102 L 150 118 C 150 119.105469 149.105469 120 148 120 L 132 120 C 130.894531 120 130 119.105469 130 118 L 130 102 C 130 100.894531 130.894531 100 132 100 Z M 132 100 "/>
<path style="fill:none;stroke-width:1;stroke-linecap:butt;stroke-linejoin:miter;stroke:rgb(80%,80%,80%);stroke-opacity:1;stroke-miterlimit:10;" d="M 132 130 L 148 130 C 149.105469 130 150 130.894531 150 132 L 150 148 C 150 149.105469 149.105469 150 148 150 L 132 150 C 130.894531 150 130 149.105469 130 148 L 130 132 C 130 130.894531 130.894531 130 132 130 Z M 132 130 "/>
<path style=" stroke:none;fill-rule:nonzero;fill:rgb(0%,50.196078%,0%);fill-opacity:1;" d="M 132 130 L 148 130 C 149.105469 130 150 130.894531 150 132 L 150 148 C 150 149.105469 149.105469 150 148 150 L 132 150 C 130.894531 150 130 149.105469 130 148 L 130 132 C 130 130.894531 130.894531 130 132 130 Z M 132 130 "/>
<path style="fill:none;stroke-width:1;stroke-linecap:butt;stroke-linejoin:miter;stroke:rgb(80%,80%,80%);stroke-opacity:1;stroke-miterlimit:10;" d="M 132 160 L 148 160 C 149.105469 160 150 160.894531 150 162 L 150 178 C 150 179.105469 149.105469 180 148 180 L 132 180 C 130.894531 180 130 179.105469 130 178 L 130 162 C 130 160.894531 130.894531 160 132 160 Z M 132 160 "/>
<path style=" stroke:none;fill-rule:nonzero;fill:rgb(100%,100%,100%);fill-opacity:1;" d="M 132 160 L 148 160 C 149.105469 160 150 160.894531 150 162 L 150 178 C 150 179.105469 149.105469 180 148 180 L 132 180 C 130.894531 180 130 179.105469 130 178 L 130 162 C 130 160.894531 130.894531 160 132 160 Z M 132 160 "/>
<path style="fill:none;stroke-width:1;stroke-linecap:butt;stroke-linejoin:miter;stroke:rgb(80%,80%,80%);stroke-opacity:1;stroke-miterlimit:10;" d="M 132 190 L 148 190 C 149.105469 190 150 190.894531 150 192 L 150 208 C 150 209.105469 149.105469 210 148 210 L 132 210 C 130.894531 210 130 209.105469 130 208 L 130 192 C 130 190.894531 130.894531 190 132 190 Z M 132 190 "/>
<path style=" stroke:none;fill-rule:nonzero;fill:rgb(0%,50.196078%,0%);fill-opacity:1;" d="M 132 190 L 148 190 C 149.105469 190 150 190.894531 150 192 L 150 208 C 150 209.105469 149.105469 210 148 210 L 132 210 C 130.894531 210 130 209.105469 130 208 L 130 192 C 130 190.894531 130.894531 190 132 190 Z M 132 190 "/>
</g>
</svg>
